<svg width="139" height="45" viewBox="0 0 139 45" fill="none" xmlns="http://www.w3.org/2000/svg">
<path d="M17.9358 0.445557L2.24219 9.35645C0.919434 10.6707 0.0302734 11.985 0.000976562 14.1464L0.000244141 14.2574V31.1881C0.000244141 32.5247 0.44873 33.8614 1.34546 34.7525L3.13892 35.6436L6.27759 37.8713C6.44507 37.8947 6.61548 37.8708 6.76978 37.8021C6.92383 37.7335 7.05542 37.6229 7.14917 37.4832C7.24292 37.3435 7.29492 37.1804 7.29932 37.0126C7.30396 36.8448 7.2605 36.6791 7.17432 36.5346C5.82935 34.7525 5.82935 33.8614 5.82935 32.0792L6.27759 31.6337L9.82397 10.4908C12.1848 10.0649 14.7356 9.93015 15.6938 10.2475C15.8494 10.3348 15.9751 10.4662 16.0549 10.625C16.135 10.7838 16.1653 10.9626 16.1421 11.1386L14.7971 19.1584C14.7109 19.3029 14.6675 19.4685 14.6721 19.6363C14.6765 19.8041 14.7285 19.9673 14.8223 20.107C14.916 20.2467 15.0476 20.3572 15.2017 20.4259C15.356 20.4945 15.5266 20.5185 15.6938 20.4951L27.3518 18.7129C27.5896 18.7129 27.8179 18.619 27.9861 18.4519C28.1541 18.2848 28.2485 18.0581 28.2485 17.8218L30.0422 5.34653C30.0422 5.1102 29.9478 4.88354 29.7795 4.71643C29.6113 4.54932 29.3833 4.45544 29.1455 4.45544L24.2131 1.33664C21.9712 0 21.5227 0 20.626 0L17.9358 0.445557Z" fill="url(#paint0_linear)"/>
<path d="M22.8679 44.5544L38.5615 35.198C39.7 34.4439 40.5171 33.0518 40.7415 31.5614C40.7695 31.4388 40.7903 31.3141 40.8035 31.1881V13.8119C40.8582 13.1559 40.7659 12.4961 40.5332 11.8798C40.3008 11.2635 39.9336 10.706 39.4583 10.2475L39.1667 10.0544C38.304 9.2243 37.2185 8.60498 36.2109 8.03027C35.9407 7.87613 35.676 7.72519 35.4229 7.57425C34.8501 7.28967 34.4602 7.36862 34.3701 7.69504C34.3435 7.72586 34.3203 7.76004 34.3018 7.79703C34.2424 7.91519 34.2327 8.052 34.2747 8.17734C34.3167 8.30267 34.4072 8.40625 34.5261 8.46533C34.7849 8.7225 35.0615 9.04501 35.3494 9.4342C35.9805 10.3704 35.9451 11.0969 35.8987 12.0479C35.8855 12.3175 35.8713 12.6052 35.8713 12.9208V13.3663L32.8262 34.1142C30.416 34.8325 28.1145 35.1536 26.9036 34.7525C26.7478 34.6652 26.6221 34.5338 26.5422 34.375C26.4624 34.2162 26.4319 34.0374 26.4551 33.8614L27.3518 25.396C27.3518 25.1597 27.2573 24.933 27.0891 24.7659C26.9211 24.5988 26.6929 24.5049 26.4551 24.5049L14.3486 25.8416C14.1108 25.8416 13.8828 25.9355 13.7146 26.1026C13.5464 26.2697 13.4519 26.4963 13.4519 26.7327L10.7615 39.6535C10.7615 39.8898 10.856 40.1165 11.0242 40.2836C11.1924 40.4507 11.4204 40.5446 11.6582 40.5446L16.5906 43.6634C18.8325 45 19.281 45 20.1777 45L22.8679 44.5544Z" fill="url(#paint1_linear)"/>
<path d="M120.168 8.01981C120.559 8.06659 120.93 8.21472 121.245 8.44934C121.56 8.68399 121.807 8.99683 121.961 9.35645L122.41 10.2475L121.961 11.5842L120.168 12.4753L118.375 11.5842L117.926 10.2475L118.375 9.35645L119.271 8.46533L120.168 8.01981Z" fill="url(#paint2_linear)"/>
<path d="M55.6003 23.1683V22.2772H59.1873V23.6139H68.155L68.6035 24.0594L67.2583 26.7327H59.6357L59.1873 27.1782V28.9604L55.6003 30.297V27.1782C55.6003 27.1202 55.5889 27.0633 55.5674 27.0105C55.5552 26.9805 55.5396 26.9519 55.521 26.9252C55.5056 26.9031 55.4883 26.8824 55.469 26.8632C55.3848 26.7796 55.2708 26.7327 55.1519 26.7327H47.5293C47.4104 26.7327 47.2964 26.6857 47.2122 26.6022C47.1282 26.5186 47.0808 26.4053 47.0808 26.2871V24.0594C47.0808 23.9413 47.1282 23.8279 47.2122 23.7444C47.2964 23.6608 47.4104 23.6139 47.5293 23.6139H55.1519C55.2319 23.6139 55.3096 23.5927 55.3774 23.5533C55.4106 23.5341 55.4414 23.5107 55.469 23.4834C55.553 23.3998 55.6003 23.2865 55.6003 23.1683Z" fill="url(#paint3_linear)"/>
<path d="M50.2195 8.46533H53.8066C53.8748 8.42624 53.9521 8.40564 54.031 8.40564C54.0493 8.40564 54.0676 8.40677 54.0857 8.40897C54.1084 8.41174 54.1311 8.41629 54.1533 8.42255C54.1711 8.42755 54.1885 8.43365 54.2056 8.44083C54.2224 8.44794 54.239 8.45612 54.2551 8.46533C54.2944 8.53308 54.3152 8.60992 54.3152 8.68811C54.3152 8.72427 54.3108 8.76013 54.3022 8.79492C54.2922 8.83542 54.2764 8.87448 54.2551 8.91089L52.9099 10.6931V20.9406L49.3228 21.8317C49.2546 21.8708 49.1772 21.8914 49.0986 21.8914C49.02 21.8914 48.9426 21.8708 48.8745 21.8317V13.8119C48.8745 13.6937 48.8271 13.5804 48.7432 13.4968C48.7002 13.4542 48.6497 13.4211 48.5945 13.399C48.5415 13.3776 48.4844 13.3663 48.426 13.3663H47.5293C47.49 13.2986 47.4692 13.2218 47.4692 13.1436C47.4692 13.0999 47.4756 13.0568 47.488 13.0154C47.498 12.9825 47.512 12.9507 47.5293 12.9208L50.2195 8.46533Z" fill="url(#paint4_linear)"/>
<path d="M56.4971 18.2673V21.3861C56.4971 21.5043 56.5442 21.6176 56.6284 21.7012C56.6733 21.7459 56.7268 21.7801 56.7852 21.8023C56.8359 21.8215 56.8901 21.8317 56.9453 21.8317H68.155C68.2231 21.8708 68.3005 21.8914 68.3794 21.8914C68.458 21.8914 68.5354 21.8708 68.6035 21.8317L69.9487 19.1584C69.988 19.0907 70.0088 19.0139 70.0088 18.9356C70.0088 18.8574 69.988 18.7806 69.9487 18.7129C69.8804 18.6738 69.8032 18.6532 69.7244 18.6532C69.6458 18.6532 69.5684 18.6738 69.5002 18.7129H60.981C60.9443 18.7129 60.9082 18.7084 60.873 18.6997C60.7944 18.6804 60.7219 18.6401 60.6638 18.5824C60.6479 18.5666 60.6333 18.5498 60.6201 18.5321C60.5779 18.4753 60.5498 18.4094 60.5383 18.3398C60.5344 18.316 60.5325 18.2918 60.5325 18.2673V16.4851L68.155 9.80197C68.1943 9.73425 68.2151 9.65741 68.2151 9.57919C68.2151 9.50101 68.1943 9.42416 68.155 9.35645C68.0869 9.31732 68.0095 9.29675 67.9309 9.29675C67.8523 9.29675 67.7749 9.31732 67.7068 9.35645H63.6711L60.981 12.0297H60.5325V8.46533H56.4971V15.5941L54.2551 17.3763L56.4971 18.2673Z" fill="url(#paint5_linear)"/>
<path d="M73.9841 8.91089H90.126C90.2815 8.99817 90.4075 9.12958 90.4873 9.28836C90.5671 9.44711 90.5974 9.62598 90.5745 9.80197L89.6777 11.5842C89.5879 11.782 89.4285 11.9404 89.2292 12.0297H73.9841C73.7463 12.0297 73.5181 11.9358 73.3501 11.7687C73.1819 11.6016 73.0874 11.3749 73.0874 11.1386V9.80197C73.0874 9.56564 73.1819 9.33899 73.3501 9.17188C73.5181 9.00476 73.7463 8.91089 73.9841 8.91089Z" fill="url(#paint6_linear)"/>
<path d="M86.0906 21.3861C86.0674 21.2101 86.0979 21.0313 86.1777 20.8725C86.2576 20.7137 86.3833 20.5823 86.5391 20.4951H88.781C88.8613 20.4846 88.9421 20.4852 89.0215 20.4962C89.1169 20.5096 89.2104 20.5383 89.2979 20.5817C89.4575 20.661 89.5898 20.786 89.6777 20.9406L91.9197 28.9604C91.9197 29.1967 91.8252 29.4234 91.657 29.5905C91.4888 29.7576 91.2607 29.8515 91.0229 29.8515H88.781C88.7029 29.8616 88.6243 29.8614 88.5471 29.8512C88.4902 29.8438 88.4343 29.8309 88.3799 29.8128C88.3403 29.7996 88.3015 29.7836 88.2639 29.7649C88.1042 29.6855 87.9719 29.5605 87.884 29.4059L86.9873 25.8416L86.0906 21.3861Z" fill="url(#paint7_linear)"/>
<path d="M87.0195 28.8376V28.8329C87.092 27.9131 87.1853 26.7327 86.0906 26.7327H76.2261C75.9883 26.7327 75.76 26.6388 75.592 26.4717C75.4238 26.3046 75.3293 26.0779 75.3293 25.8416L78.9163 19.1584C79.0063 18.9606 79.1658 18.8022 79.3647 18.7129H90.126L91.0229 18.2673L91.4712 16.9307C91.5574 16.7863 91.6006 16.6206 91.5962 16.4528C91.5918 16.2849 91.5396 16.1218 91.4458 15.9821C91.3523 15.8424 91.2207 15.7319 91.0664 15.6632C90.9124 15.5946 90.7417 15.5706 90.5745 15.5941H71.7422C71.6108 15.7245 71.4795 15.8168 71.3706 15.8932C71.1079 16.0778 70.9768 16.1701 71.2937 16.4851V18.2673L71.7422 18.7129H73.9841C74.1514 18.6894 74.322 18.7134 74.4761 18.782C74.5635 18.8209 74.6436 18.8732 74.7134 18.9366C74.7671 18.9852 74.8149 19.0403 74.8555 19.1009C74.9492 19.2406 75.0015 19.4038 75.0059 19.5716C75.0103 19.7394 74.967 19.9051 74.8809 20.0495L72.1907 27.1782V28.9604C72.1675 29.1364 72.1978 29.3152 72.2778 29.474C72.3157 29.5494 72.364 29.6186 72.4209 29.6799C72.4839 29.7477 72.5571 29.8057 72.6389 29.8515H86.0906C86.2678 29.8744 86.4478 29.8443 86.6074 29.7649C86.709 29.7144 86.7993 29.6456 86.8743 29.5625C86.9175 29.5148 86.9553 29.4623 86.9873 29.4059C86.9873 29.2413 87.0029 29.0461 87.0195 28.8376Z" fill="url(#paint8_linear)"/>
<path d="M94.6099 25.396H97.3003C97.3535 25.396 97.4058 25.4054 97.4546 25.4233C97.5151 25.4454 97.5708 25.4804 97.6172 25.5266C97.7014 25.6101 97.7485 25.7234 97.7485 25.8416V28.9604C97.7485 29.0786 97.7014 29.1919 97.6172 29.2755C97.5332 29.359 97.4192 29.4059 97.3003 29.4059L94.6099 30.297C94.5413 30.297 94.4744 30.2815 94.4141 30.2523C94.3696 30.2308 94.3286 30.202 94.293 30.1665C94.2087 30.083 94.1616 29.9696 94.1616 29.8515V25.8416C94.1616 25.7234 94.2087 25.6101 94.293 25.5266C94.377 25.443 94.491 25.396 94.6099 25.396Z" fill="url(#paint9_linear)"/>
<path d="M111.649 22.2772V19.1584C111.649 19.0403 111.601 18.9269 111.517 18.8434C111.433 18.7598 111.319 18.7129 111.2 18.7129H95.0583C94.9395 18.7129 94.8254 18.6659 94.7412 18.5824C94.6987 18.54 94.6655 18.49 94.6431 18.4356C94.6213 18.3827 94.6099 18.3256 94.6099 18.2673V17.8218C94.6099 17.7036 94.6572 17.5903 94.7412 17.5067C94.7676 17.4806 94.7969 17.458 94.8284 17.4394C94.856 17.4229 94.8853 17.4095 94.9158 17.3994C94.9612 17.3842 95.0093 17.3763 95.0583 17.3763H114.787C114.849 17.3763 114.909 17.3888 114.964 17.4125C115.016 17.4346 115.064 17.4664 115.104 17.5067C115.188 17.5903 115.236 17.7036 115.236 17.8218V22.7228C115.206 22.7398 115.175 22.7534 115.142 22.7632C115.1 22.7759 115.056 22.7825 115.011 22.7825C114.969 22.7825 114.927 22.7766 114.887 22.765C114.853 22.755 114.819 22.7409 114.787 22.7228L111.649 24.5049H107.165H95.0583C94.9395 24.5049 94.8254 24.458 94.7412 24.3745C94.6572 24.2909 94.6099 24.1776 94.6099 24.0594V23.1683C94.6099 23.0501 94.6572 22.9368 94.7412 22.8533C94.7661 22.8285 94.7937 22.8069 94.8232 22.7888C94.8936 22.746 94.9749 22.7228 95.0583 22.7228H111.2C111.319 22.7228 111.433 22.6758 111.517 22.5923C111.601 22.5087 111.649 22.3954 111.649 22.2772Z" fill="url(#paint10_linear)"/>
<path d="M107.165 24.5049L108.062 24.9505L108.51 25.396L108.958 26.2871L108.062 28.0693C107.75 28.1638 107.418 28.1723 107.103 28.0938C106.787 28.0154 106.498 27.8528 106.268 27.6237L105.82 27.1782L105.371 26.2871L105.82 25.396L106.268 24.9505L107.165 24.5049Z" fill="url(#paint11_linear)"/>
<path d="M110.752 21.3861C111.2 20.9406 111.2 20.4951 110.303 20.4951H95.5066C95.4482 20.4951 95.3911 20.5063 95.3381 20.5277C95.283 20.5499 95.2324 20.583 95.1897 20.6255C95.1055 20.7091 95.0583 20.8224 95.0583 20.9406V21.3861C95.0583 21.5043 95.1055 21.6176 95.1897 21.7012C95.2737 21.7847 95.3877 21.8317 95.5066 21.8317H110.303C110.372 21.8708 110.449 21.8914 110.528 21.8914C110.606 21.8914 110.684 21.8708 110.752 21.8317V21.3861Z" fill="url(#paint12_linear)"/>
<path d="M97.7485 8.91089H101.336V9.35645H103.578C103.697 9.29736 103.834 9.28763 103.96 9.32941C104.086 9.37119 104.191 9.46103 104.25 9.57919C104.31 9.69739 104.32 9.83417 104.277 9.9595C104.235 10.0848 104.145 10.1884 104.026 10.2475L103.578 10.6931C103.51 10.7322 103.432 10.7527 103.354 10.7527C103.275 10.7527 103.198 10.7322 103.129 10.6931H101.784C101.725 10.6931 101.666 10.7049 101.612 10.7272C101.558 10.7494 101.509 10.782 101.467 10.8236C101.424 10.8667 101.39 10.9178 101.368 10.9733C101.347 11.0254 101.336 11.0815 101.336 11.1386L100.887 11.5842C100.887 11.6466 100.901 11.7077 100.925 11.7638C100.948 11.8138 100.979 11.8598 101.019 11.8992C101.053 11.9333 101.092 11.9612 101.135 11.9824C101.197 12.0132 101.265 12.0297 101.336 12.0297H103.129C103.248 12.0297 103.362 12.0766 103.446 12.1602C103.531 12.2437 103.578 12.3571 103.578 12.4753L103.129 13.3663C103.061 13.4054 102.984 13.426 102.905 13.426C102.826 13.426 102.749 13.4054 102.681 13.3663H101.336C101.217 13.3663 101.103 13.4133 101.019 13.4968C100.935 13.5804 100.887 13.6937 100.887 13.8119V14.2574L101.336 14.703H104.026V15.5941L103.578 16.0396H100.887V16.4851L98.197 16.9307C98.1633 16.9501 98.1272 16.9649 98.0898 16.975C98.0518 16.9852 98.0125 16.9904 97.9729 16.9904C97.894 16.9904 97.8169 16.9698 97.7485 16.9307L97.3003 16.0396H94.6099V15.1485L95.0583 14.703H97.3003L97.7485 14.2574V13.8119C97.7485 13.6937 97.7014 13.5804 97.6172 13.4968C97.5884 13.4682 97.5562 13.4439 97.5215 13.4243C97.4856 13.4041 97.4473 13.3889 97.4072 13.3792C97.3726 13.3707 97.3367 13.3663 97.3003 13.3663H95.0583L94.6099 12.9208V12.4753L95.0583 12.0297H97.3003L97.7485 11.5842V11.1386H95.0583L94.6099 10.6931V9.80197C94.6099 9.68381 94.6572 9.5705 94.7412 9.48694C94.8254 9.40338 94.9395 9.35645 95.0583 9.35645H97.7485V8.91089Z" fill="url(#paint13_linear)"/>
<path d="M102.681 25.396C102.734 25.396 102.786 25.4053 102.834 25.4229C102.895 25.445 102.951 25.4801 102.998 25.5266C103.082 25.6101 103.129 25.7234 103.129 25.8416V28.0693C103.129 28.0959 103.132 28.1223 103.136 28.1481C103.14 28.1682 103.145 28.188 103.151 28.2073C103.173 28.2734 103.21 28.3343 103.26 28.3844C103.345 28.4679 103.459 28.5149 103.578 28.5149H109.407C109.526 28.5149 109.64 28.5618 109.724 28.6454C109.808 28.7289 109.855 28.8422 109.855 28.9604L108.958 30.297H99.9905C99.8716 30.297 99.7576 30.2501 99.6736 30.1665C99.5894 30.083 99.5422 29.9696 99.5422 29.8515V25.8416C99.5422 25.7234 99.5894 25.6101 99.6736 25.5266C99.7576 25.443 99.8716 25.396 99.9905 25.396H102.681Z" fill="url(#paint14_linear)"/>
<path d="M114.339 9.35645C114.406 9.323 114.479 9.30536 114.553 9.30396C114.61 9.30286 114.667 9.31128 114.722 9.32941C114.848 9.37119 114.952 9.46103 115.011 9.57919C115.071 9.69739 115.081 9.83417 115.039 9.9595C114.997 10.0848 114.906 10.1884 114.787 10.2475L113.891 11.1386H112.097V12.0297H114.339C114.458 12.0297 114.572 12.0766 114.656 12.1602C114.74 12.2437 114.787 12.3571 114.787 12.4753L113.891 13.3663H112.097C111.978 13.3663 111.864 13.4133 111.78 13.4968C111.696 13.5804 111.649 13.6937 111.649 13.8119V14.2574L112.097 14.703H114.339C114.458 14.703 114.572 14.7499 114.656 14.8335C114.74 14.917 114.787 15.0303 114.787 15.1485C114.827 15.2162 114.847 15.2931 114.847 15.3713C114.847 15.4495 114.827 15.5263 114.787 15.5941L114.339 16.0396H111.649V16.4851L108.51 16.9307C108.481 16.9471 108.451 16.9602 108.42 16.9699C108.377 16.9834 108.332 16.9904 108.286 16.9904C108.207 16.9904 108.13 16.9698 108.062 16.9307L107.613 16.0396H104.923V15.1485L105.371 14.703H107.613L108.062 14.2574V13.8119C108.062 13.6937 108.014 13.5804 107.93 13.4968C107.892 13.4589 107.848 13.4285 107.8 13.4067C107.742 13.3803 107.678 13.3663 107.613 13.3663H105.371C105.252 13.3663 105.138 13.3194 105.054 13.2358C104.97 13.1523 104.923 13.039 104.923 12.9208V12.4753C104.923 12.4455 104.926 12.416 104.932 12.3873C104.937 12.3621 104.944 12.3374 104.953 12.3135C104.966 12.2816 104.982 12.2512 105.002 12.2228C105.017 12.2006 105.035 12.1796 105.054 12.1602C105.138 12.0766 105.252 12.0297 105.371 12.0297H107.613C107.651 12.0297 107.689 12.0248 107.725 12.0155C107.802 11.9958 107.873 11.9559 107.93 11.8992C107.963 11.8671 107.99 11.8306 108.01 11.7911C108.044 11.7278 108.062 11.6569 108.062 11.5842V11.1386C108.062 11.0724 108.047 11.0076 108.019 10.9488C107.997 10.9027 107.967 10.8603 107.93 10.8236C107.846 10.74 107.732 10.6931 107.613 10.6931H105.371C105.252 10.6931 105.138 10.6461 105.054 10.5626C104.97 10.479 104.923 10.3657 104.923 10.2475V9.80197C104.923 9.68381 104.97 9.5705 105.054 9.48694C105.103 9.43869 105.161 9.40265 105.225 9.38083C105.272 9.36484 105.321 9.35645 105.371 9.35645H107.613L108.062 8.91089C108.022 8.84317 108.001 8.76633 108.001 8.68811C108.001 8.60992 108.022 8.53308 108.062 8.46533C108.13 8.42624 108.207 8.40564 108.286 8.40564C108.333 8.40564 108.38 8.41309 108.425 8.42755C108.454 8.43713 108.483 8.44977 108.51 8.46533H111.2L111.649 8.91089C111.609 8.97861 111.589 9.05545 111.589 9.13367C111.589 9.21188 111.609 9.2887 111.649 9.35645H114.339Z" fill="url(#paint15_linear)"/>
<path d="M112.097 25.396H114.787C114.906 25.396 115.02 25.443 115.104 25.5266C115.155 25.5769 115.192 25.6381 115.214 25.7047C115.228 25.7485 115.236 25.7947 115.236 25.8416V28.9604C115.236 29.005 115.229 29.049 115.216 29.0909C115.195 29.16 115.157 29.2235 115.104 29.2755C115.02 29.359 114.906 29.4059 114.787 29.4059L112.097 30.297C111.978 30.297 111.864 30.2501 111.78 30.1665C111.696 30.083 111.649 29.9696 111.649 29.8515V25.8416C111.649 25.7234 111.696 25.6101 111.78 25.5266C111.834 25.4731 111.9 25.4346 111.972 25.4138C112.012 25.4021 112.054 25.396 112.097 25.396Z" fill="url(#paint16_linear)"/>
<path fill-rule="evenodd" clip-rule="evenodd" d="M136.758 12.9208H138.552V23.1683L134.965 26.2871H134.068C134.006 26.2871 133.945 26.2743 133.889 26.2502C133.838 26.2281 133.791 26.1965 133.751 26.1566C133.667 26.0731 133.62 25.9597 133.62 25.8416V23.6139H135.413V15.1485H132.723V16.9307H134.965L134.068 19.604H132.723V20.0495H134.965L134.068 22.7228H132.723V25.8416L129.136 27.1782V22.7228H126.445V25.396L124.031 26.4242L125.549 27.1782H129.136H137.655C137.893 27.1782 138.121 27.2721 138.289 27.4392C138.457 27.6063 138.552 27.833 138.552 28.0693L138.104 29.4059C138.016 29.5605 137.883 29.6855 137.724 29.7649C137.564 29.8443 137.384 29.8744 137.207 29.8515H123.755L123.307 29.4059L122.41 28.9604C122.273 28.8822 122.119 28.841 121.961 28.841C121.804 28.841 121.649 28.8822 121.513 28.9604L119.271 29.8515C119.033 29.8515 118.805 29.7576 118.637 29.5905C118.469 29.4234 118.374 29.1967 118.374 28.9604V16.9307H117.926V14.703C117.926 14.4666 118.021 14.24 118.189 14.0729C118.357 13.9058 118.585 13.8119 118.823 13.8119H121.513C121.751 13.8119 121.979 13.9058 122.147 14.0729C122.315 14.24 122.41 14.4666 122.41 14.703V24.9505C122.387 25.1265 122.417 25.3054 122.497 25.4641C122.577 25.6229 122.703 25.7543 122.858 25.8416L123.307 26.0644V12.9208H125.549L124.652 11.5842H128.687L129.584 12.9208H131.826L133.171 11.1386H123.307V8.46533H138.552V10.2475L136.758 12.9208ZM126.445 20.0495H129.136V18.7129H126.445V20.0495ZM126.445 16.9307H129.136V15.5941H126.445V16.9307Z" fill="url(#paint17_linear)"/>
<path fill-rule="evenodd" clip-rule="evenodd" d="M47.0808 31.6337V37.8713H50.668C51.0159 37.8713 51.3591 37.7908 51.6704 37.6361C51.9819 37.4814 52.2527 37.2569 52.4614 36.9802L52.9099 36.0891V33.4159L52.0132 32.0792L50.668 31.6337H47.0808ZM51.5647 36.9802L50.668 37.4258H47.9775V32.5247H50.668L51.5647 33.4159L52.0132 34.7525V36.0891L51.5647 36.9802Z" fill="url(#paint18_linear)"/>
<path fill-rule="evenodd" clip-rule="evenodd" d="M56.9453 37.8713H57.842L58.7388 37.4258V37.8713H60.084L59.6357 37.4258V34.3069L58.7388 33.4159L57.3938 32.9703L55.6001 33.8614L55.1519 34.7525H56.0486L56.4968 33.8614H58.2905C58.3901 33.9174 58.4775 33.9915 58.5486 34.0793C58.5884 34.1285 58.623 34.1819 58.6516 34.2389C58.7317 34.3976 58.762 34.5765 58.7388 34.7525L56.9453 35.198H56.4968L55.6001 35.6436L55.1519 36.0891C55.0938 36.3313 55.1052 36.5847 55.1843 36.8209C55.2637 37.0571 55.4075 37.2665 55.6001 37.4258L56.9453 37.8713ZM57.3938 36.0891L58.7388 35.6436V36.9802L57.842 37.4258H56.4968C56.3779 37.4258 56.2639 37.3788 56.1799 37.2953C56.0957 37.2117 56.0486 37.0984 56.0486 36.9802V36.5347L56.4968 36.0891H57.3938Z" fill="url(#paint19_linear)"/>
<path d="M62.7744 37.8713H64.1196V36.9802L63.6711 37.4258L63.2227 36.9802V33.8614H64.1196V33.4159H63.2227V31.6337L62.3259 32.0792V33.4159H61.8777V33.8614H62.3259V37.4258L62.7744 37.8713Z" fill="url(#paint20_linear)"/>
<path fill-rule="evenodd" clip-rule="evenodd" d="M67.7065 37.8713H68.6033L69.5002 37.4258V37.8713H70.8452L70.397 37.4258V34.3069L69.5002 33.4159L68.155 32.9703L66.3616 33.8614L65.9131 34.7525H66.8098L67.2583 33.8614H69.0518C69.2073 33.9487 69.333 34.0801 69.4131 34.2389C69.4929 34.3976 69.5232 34.5765 69.5002 34.7525L67.7065 35.198H67.2583L66.3616 35.6436L65.9131 36.0891C65.8552 36.3313 65.8665 36.5847 65.9456 36.8209C66.0249 37.0571 66.1689 37.2665 66.3616 37.4258L67.7065 37.8713ZM68.155 36.0891L69.5002 35.6436V36.9802L68.6033 37.4258H67.2583C67.1394 37.4258 67.0251 37.3788 66.9412 37.2953C66.8572 37.2117 66.8098 37.0984 66.8098 36.9802V36.5347L67.2583 36.0891H68.155Z" fill="url(#paint21_linear)"/>
<path d="M76.2261 31.6337V37.8713H77.1228V31.6337H76.2261Z" fill="url(#paint22_linear)"/>
<path d="M80.2615 33.4159H79.813V37.8713H80.71V35.198C80.738 34.8547 80.8987 34.5355 81.1582 34.3069L82.0549 33.8614H82.9517L83.4001 34.3069V37.8713H83.8486V34.3069L82.9517 33.4159H82.0549C81.7415 33.3591 81.4192 33.3695 81.1099 33.4464C80.8005 33.5232 80.5112 33.6647 80.2615 33.8614V33.4159Z" fill="url(#paint23_linear)"/>
<path d="M86.9873 37.8713H88.3325V36.9802L87.884 37.4258L87.4355 36.9802V33.8614H88.3325V33.4159H87.4355V31.6337L86.5388 32.0792V33.4159H86.0906V33.8614H86.5388V37.4258L86.9873 37.8713Z" fill="url(#paint24_linear)"/>
<path fill-rule="evenodd" clip-rule="evenodd" d="M92.8164 38.3168L94.1614 37.8713L95.0583 36.9802L94.1614 36.5347C94.1614 36.8892 94.0198 37.2291 93.7676 37.4798C93.5151 37.7305 93.1731 37.8713 92.8164 37.8713L91.4712 37.4258C91.3088 37.2449 91.1855 37.0331 91.1084 36.8033C91.0312 36.5735 91.0022 36.3305 91.0227 36.0891H95.0583C95.0583 35.7433 94.9773 35.4022 94.8215 35.0929C94.6658 34.7835 94.4399 34.5144 94.1614 34.3069L92.8164 33.4159L91.0227 34.3069C90.7444 34.5144 90.5183 34.7835 90.3625 35.0929C90.207 35.4022 90.126 35.7433 90.126 36.0891C90.126 36.435 90.207 36.7761 90.3625 37.0854C90.5183 37.3947 90.7444 37.6638 91.0227 37.8713L92.8164 38.3168ZM94.1614 35.198H91.0227C91.051 34.8547 91.2117 34.5355 91.4712 34.3069L92.8164 33.8614C93.1619 33.8895 93.4832 34.0491 93.7131 34.3069L94.1614 35.198Z" fill="url(#paint25_linear)"/>
<path d="M97.3 31.6337V37.8713H98.197V31.6337H97.3Z" fill="url(#paint26_linear)"/>
<path d="M100.439 31.6337V37.8713H101.336V31.6337H100.439Z" fill="url(#paint27_linear)"/>
<path d="M104.923 31.6337H104.026V32.5247H104.923V31.6337Z" fill="url(#paint28_linear)"/>
<path d="M104.923 33.4159H104.026V37.8713H104.923V33.4159Z" fill="url(#paint29_linear)"/>
<path fill-rule="evenodd" clip-rule="evenodd" d="M107.7 38.8305C107.62 38.6717 107.59 38.4929 107.613 38.3168H106.716C106.7 38.6061 106.778 38.8929 106.94 39.134C107.102 39.375 107.338 39.5574 107.613 39.6535L108.958 40.099L110.303 39.6535L111.2 38.7624L111.648 37.4258V33.4159H110.752V33.8614C110.502 33.6647 110.213 33.5232 109.903 33.4464C109.594 33.3695 109.272 33.3591 108.958 33.4159H107.613L106.716 34.3069V35.6436C106.716 36.2344 106.952 36.801 107.373 37.2188C107.793 37.6366 108.364 37.8713 108.958 37.8713C109.272 37.928 109.594 37.9176 109.903 37.8408C110.213 37.7639 110.502 37.6225 110.752 37.4258V38.3168L110.303 39.2079H108.062C107.906 39.1207 107.78 38.9892 107.7 38.8305ZM108.147 36.3578C108.07 36.128 108.041 35.8849 108.062 35.6436C108.041 35.4022 108.07 35.1592 108.147 34.9294C108.224 34.6996 108.348 34.4878 108.51 34.3069C108.756 34.0878 109.076 33.9666 109.407 33.9666C109.738 33.9666 110.057 34.0878 110.303 34.3069C110.466 34.4878 110.589 34.6996 110.666 34.9294C110.743 35.1592 110.772 35.4022 110.752 35.6436C110.772 35.8849 110.743 36.128 110.666 36.3578C110.589 36.5876 110.466 36.7994 110.303 36.9802C110.057 37.1994 109.738 37.3206 109.407 37.3206C109.076 37.3206 108.756 37.1994 108.51 36.9802C108.348 36.7994 108.224 36.5876 108.147 36.3578Z" fill="url(#paint30_linear)"/>
<path fill-rule="evenodd" clip-rule="evenodd" d="M116.581 38.3168L117.926 37.8713L118.823 36.9802L117.926 36.5347L117.478 37.4258L116.581 37.8713L115.236 37.4258C115.073 37.2449 114.95 37.0331 114.873 36.8033C114.796 36.5735 114.767 36.3305 114.787 36.0891H118.823C118.88 35.7775 118.869 35.4573 118.792 35.15C118.715 34.8427 118.572 34.5552 118.374 34.3069L116.581 33.4159L114.787 34.3069C114.509 34.5144 114.283 34.7835 114.127 35.0929C113.971 35.4022 113.89 35.7433 113.89 36.0891C113.89 36.435 113.971 36.7761 114.127 37.0854C114.283 37.3947 114.509 37.6638 114.787 37.8713L116.581 38.3168ZM117.926 35.198H114.787C114.816 34.8547 114.976 34.5355 115.236 34.3069L116.581 33.8614C116.938 33.8614 117.28 34.0022 117.532 34.2529C117.784 34.5035 117.926 34.8435 117.926 35.198Z" fill="url(#paint31_linear)"/>
<path d="M121.961 33.8614V33.4159H121.065V37.8713H121.961V35.198C121.99 34.8547 122.15 34.5355 122.41 34.3069L123.307 33.8614H124.203L124.652 34.3069V37.8713H125.549V34.3069L124.652 33.4159H123.755C123.441 33.3591 123.119 33.3695 122.81 33.4464C122.5 33.5232 122.211 33.6647 121.961 33.8614Z" fill="url(#paint32_linear)"/>
<path d="M131.378 37.8713L132.274 36.5347H131.378L130.929 37.4258H130.032C129.687 37.3976 129.366 37.238 129.136 36.9802L128.687 35.6436C128.667 35.4022 128.696 35.1592 128.773 34.9294C128.85 34.6996 128.973 34.4878 129.136 34.3069C129.366 34.0491 129.687 33.8895 130.032 33.8614L130.929 34.3069L131.378 34.7525H132.274L131.378 33.8614L130.032 33.4159H128.687L127.791 34.3069V35.6436C127.733 35.9552 127.744 36.2754 127.821 36.5827C127.898 36.89 128.041 37.1775 128.239 37.4258L130.032 38.3168L131.378 37.8713Z" fill="url(#paint33_linear)"/>
<path fill-rule="evenodd" clip-rule="evenodd" d="M136.31 38.3168L137.655 37.8713L138.552 36.9802L137.655 36.5347L137.207 37.4258L136.31 37.8713L135.413 37.4258C135.251 37.2449 135.127 37.0331 135.05 36.8033C135.002 36.6588 134.972 36.5091 134.962 36.3578C134.956 36.2685 134.957 36.1787 134.965 36.0891H138.552C138.609 35.7775 138.598 35.4573 138.521 35.15C138.444 34.8427 138.301 34.5552 138.104 34.3069L136.31 33.4159L134.516 34.3069C134.238 34.5144 134.012 34.7835 133.856 35.0929C133.7 35.4022 133.62 35.7433 133.62 36.0891C133.62 36.435 133.7 36.7761 133.856 37.0854C134.012 37.3947 134.238 37.6638 134.516 37.8713L136.31 38.3168ZM137.655 35.198H134.965C134.993 34.8547 135.154 34.5355 135.413 34.3069L136.31 33.8614C136.667 33.8614 137.009 34.0022 137.261 34.2529C137.513 34.5035 137.655 34.8435 137.655 35.198Z" fill="url(#paint34_linear)"/>
<defs>
<linearGradient id="paint0_linear" x1="137" y1="3.5" x2="10.5" y2="45" gradientUnits="userSpaceOnUse">
<stop offset="0.385417" stop-color="#3379E0"/>
<stop offset="1" stop-color="#375A8D"/>
</linearGradient>
<linearGradient id="paint1_linear" x1="137" y1="3.5" x2="10.5" y2="45" gradientUnits="userSpaceOnUse">
<stop offset="0.385417" stop-color="#3379E0"/>
<stop offset="1" stop-color="#375A8D"/>
</linearGradient>
<linearGradient id="paint2_linear" x1="137" y1="3.5" x2="10.5" y2="45" gradientUnits="userSpaceOnUse">
<stop offset="0.385417" stop-color="#3379E0"/>
<stop offset="1" stop-color="#375A8D"/>
</linearGradient>
<linearGradient id="paint3_linear" x1="137" y1="3.5" x2="10.5" y2="45" gradientUnits="userSpaceOnUse">
<stop offset="0.385417" stop-color="#3379E0"/>
<stop offset="1" stop-color="#375A8D"/>
</linearGradient>
<linearGradient id="paint4_linear" x1="137" y1="3.5" x2="10.5" y2="45" gradientUnits="userSpaceOnUse">
<stop offset="0.385417" stop-color="#3379E0"/>
<stop offset="1" stop-color="#375A8D"/>
</linearGradient>
<linearGradient id="paint5_linear" x1="137" y1="3.5" x2="10.5" y2="45" gradientUnits="userSpaceOnUse">
<stop offset="0.385417" stop-color="#3379E0"/>
<stop offset="1" stop-color="#375A8D"/>
</linearGradient>
<linearGradient id="paint6_linear" x1="137" y1="3.5" x2="10.5" y2="45" gradientUnits="userSpaceOnUse">
<stop offset="0.385417" stop-color="#3379E0"/>
<stop offset="1" stop-color="#375A8D"/>
</linearGradient>
<linearGradient id="paint7_linear" x1="137" y1="3.5" x2="10.5" y2="45" gradientUnits="userSpaceOnUse">
<stop offset="0.385417" stop-color="#3379E0"/>
<stop offset="1" stop-color="#375A8D"/>
</linearGradient>
<linearGradient id="paint8_linear" x1="137" y1="3.5" x2="10.5" y2="45" gradientUnits="userSpaceOnUse">
<stop offset="0.385417" stop-color="#3379E0"/>
<stop offset="1" stop-color="#375A8D"/>
</linearGradient>
<linearGradient id="paint9_linear" x1="137" y1="3.5" x2="10.5" y2="45" gradientUnits="userSpaceOnUse">
<stop offset="0.385417" stop-color="#3379E0"/>
<stop offset="1" stop-color="#375A8D"/>
</linearGradient>
<linearGradient id="paint10_linear" x1="137" y1="3.5" x2="10.5" y2="45" gradientUnits="userSpaceOnUse">
<stop offset="0.385417" stop-color="#3379E0"/>
<stop offset="1" stop-color="#375A8D"/>
</linearGradient>
<linearGradient id="paint11_linear" x1="137" y1="3.5" x2="10.5" y2="45" gradientUnits="userSpaceOnUse">
<stop offset="0.385417" stop-color="#3379E0"/>
<stop offset="1" stop-color="#375A8D"/>
</linearGradient>
<linearGradient id="paint12_linear" x1="137" y1="3.5" x2="10.5" y2="45" gradientUnits="userSpaceOnUse">
<stop offset="0.385417" stop-color="#3379E0"/>
<stop offset="1" stop-color="#375A8D"/>
</linearGradient>
<linearGradient id="paint13_linear" x1="137" y1="3.5" x2="10.5" y2="45" gradientUnits="userSpaceOnUse">
<stop offset="0.385417" stop-color="#3379E0"/>
<stop offset="1" stop-color="#375A8D"/>
</linearGradient>
<linearGradient id="paint14_linear" x1="137" y1="3.5" x2="10.5" y2="45" gradientUnits="userSpaceOnUse">
<stop offset="0.385417" stop-color="#3379E0"/>
<stop offset="1" stop-color="#375A8D"/>
</linearGradient>
<linearGradient id="paint15_linear" x1="137" y1="3.5" x2="10.5" y2="45" gradientUnits="userSpaceOnUse">
<stop offset="0.385417" stop-color="#3379E0"/>
<stop offset="1" stop-color="#375A8D"/>
</linearGradient>
<linearGradient id="paint16_linear" x1="137" y1="3.5" x2="10.5" y2="45" gradientUnits="userSpaceOnUse">
<stop offset="0.385417" stop-color="#3379E0"/>
<stop offset="1" stop-color="#375A8D"/>
</linearGradient>
<linearGradient id="paint17_linear" x1="137" y1="3.5" x2="10.5" y2="45" gradientUnits="userSpaceOnUse">
<stop offset="0.385417" stop-color="#3379E0"/>
<stop offset="1" stop-color="#375A8D"/>
</linearGradient>
<linearGradient id="paint18_linear" x1="137" y1="3.5" x2="10.5" y2="45" gradientUnits="userSpaceOnUse">
<stop offset="0.385417" stop-color="#3379E0"/>
<stop offset="1" stop-color="#375A8D"/>
</linearGradient>
<linearGradient id="paint19_linear" x1="137" y1="3.5" x2="10.5" y2="45" gradientUnits="userSpaceOnUse">
<stop offset="0.385417" stop-color="#3379E0"/>
<stop offset="1" stop-color="#375A8D"/>
</linearGradient>
<linearGradient id="paint20_linear" x1="137" y1="3.5" x2="10.5" y2="45" gradientUnits="userSpaceOnUse">
<stop offset="0.385417" stop-color="#3379E0"/>
<stop offset="1" stop-color="#375A8D"/>
</linearGradient>
<linearGradient id="paint21_linear" x1="137" y1="3.5" x2="10.5" y2="45" gradientUnits="userSpaceOnUse">
<stop offset="0.385417" stop-color="#3379E0"/>
<stop offset="1" stop-color="#375A8D"/>
</linearGradient>
<linearGradient id="paint22_linear" x1="137" y1="3.5" x2="10.5" y2="45" gradientUnits="userSpaceOnUse">
<stop offset="0.385417" stop-color="#3379E0"/>
<stop offset="1" stop-color="#375A8D"/>
</linearGradient>
<linearGradient id="paint23_linear" x1="137" y1="3.5" x2="10.5" y2="45" gradientUnits="userSpaceOnUse">
<stop offset="0.385417" stop-color="#3379E0"/>
<stop offset="1" stop-color="#375A8D"/>
</linearGradient>
<linearGradient id="paint24_linear" x1="137" y1="3.5" x2="10.5" y2="45" gradientUnits="userSpaceOnUse">
<stop offset="0.385417" stop-color="#3379E0"/>
<stop offset="1" stop-color="#375A8D"/>
</linearGradient>
<linearGradient id="paint25_linear" x1="137" y1="3.5" x2="10.5" y2="45" gradientUnits="userSpaceOnUse">
<stop offset="0.385417" stop-color="#3379E0"/>
<stop offset="1" stop-color="#375A8D"/>
</linearGradient>
<linearGradient id="paint26_linear" x1="137" y1="3.5" x2="10.5" y2="45" gradientUnits="userSpaceOnUse">
<stop offset="0.385417" stop-color="#3379E0"/>
<stop offset="1" stop-color="#375A8D"/>
</linearGradient>
<linearGradient id="paint27_linear" x1="137" y1="3.5" x2="10.5" y2="45" gradientUnits="userSpaceOnUse">
<stop offset="0.385417" stop-color="#3379E0"/>
<stop offset="1" stop-color="#375A8D"/>
</linearGradient>
<linearGradient id="paint28_linear" x1="137" y1="3.5" x2="10.5" y2="45" gradientUnits="userSpaceOnUse">
<stop offset="0.385417" stop-color="#3379E0"/>
<stop offset="1" stop-color="#375A8D"/>
</linearGradient>
<linearGradient id="paint29_linear" x1="137" y1="3.5" x2="10.5" y2="45" gradientUnits="userSpaceOnUse">
<stop offset="0.385417" stop-color="#3379E0"/>
<stop offset="1" stop-color="#375A8D"/>
</linearGradient>
<linearGradient id="paint30_linear" x1="137" y1="3.5" x2="10.5" y2="45" gradientUnits="userSpaceOnUse">
<stop offset="0.385417" stop-color="#3379E0"/>
<stop offset="1" stop-color="#375A8D"/>
</linearGradient>
<linearGradient id="paint31_linear" x1="137" y1="3.5" x2="10.5" y2="45" gradientUnits="userSpaceOnUse">
<stop offset="0.385417" stop-color="#3379E0"/>
<stop offset="1" stop-color="#375A8D"/>
</linearGradient>
<linearGradient id="paint32_linear" x1="137" y1="3.5" x2="10.5" y2="45" gradientUnits="userSpaceOnUse">
<stop offset="0.385417" stop-color="#3379E0"/>
<stop offset="1" stop-color="#375A8D"/>
</linearGradient>
<linearGradient id="paint33_linear" x1="137" y1="3.5" x2="10.5" y2="45" gradientUnits="userSpaceOnUse">
<stop offset="0.385417" stop-color="#3379E0"/>
<stop offset="1" stop-color="#375A8D"/>
</linearGradient>
<linearGradient id="paint34_linear" x1="137" y1="3.5" x2="10.5" y2="45" gradientUnits="userSpaceOnUse">
<stop offset="0.385417" stop-color="#3379E0"/>
<stop offset="1" stop-color="#375A8D"/>
</linearGradient>
</defs>
</svg>
